# xmcd
#
# Track frame offsets: 
#        150
#        11025
#        23399
#        36750
#        47100
#        60525
#        70747
#        85275
#        96000
#        108300
#        122400
#
# Disc length: 1832 seconds
#
# Revision: 0
# Processed by: cddbd v1.5.2PL0 Copyright (c) Steve Scherf et al.
# Submitted via: ExactAudioCopy v1.1
#
DISCID=7f07260b
DTITLE=The Jaedes - The Jaedes
DYEAR=1969
DGENRE=R&B
TTITLE0=Uh, Uh, What I Do
TTITLE1=What'll It Take To Make You Happy
TTITLE2=Teach Me A Lesson In Love
TTITLE3=We're Gonna Build A Love Together
TTITLE4=Put A Little Love In Your Heart
TTITLE5=I'll Be Back On My Feet Again
TTITLE6=Lady, Lady, Lay
TTITLE7=True, True, True
TTITLE8=Big Surprise
TTITLE9=Spinning Wheel
TTITLE10=Color Him Father
EXTD=
EXTT0=
EXTT1=
EXTT2=
EXTT3=
EXTT4=
EXTT5=
EXTT6=
EXTT7=
EXTT8=
EXTT9=
EXTT10=
PLAYORDER=
